<svg class="icon" viewBox="0 0 1024 1024" xmlns="http://www.w3.org/2000/svg" width="32" height="32"><defs><style/></defs><path d="M877.3 154.7C836.9 114.3 783 92 725.5 92c-57.5 0-111.4 22.3-151.8 62.7l-48.1 48.1-251.4 251.3 303.6 303.6 299.4-299.4c40.4-40.4 62.7-94.3 62.7-151.8 0-57.4-22.2-111.4-62.6-151.8zM221.5 506.9L177 551.3c-16.8 16.8-27.9 37.9-32.4 61.2l-53.9 285c-2.3 12.1 1.6 24.6 10.3 33.3 7.1 7.1 16.6 10.9 26.4 10.9 2.3 0 4.6-.2 6.9-.6l285-53.9c23.3-4.4 44.5-15.6 61.2-32.4l44.4-44.4-303.4-303.5z"/></svg>